<?xml version="1.0" encoding="UTF-8"?>
<svg version="1.1" xmlns="http://www.w3.org/2000/svg" width="624" height="374">
<path d="M0 0 C205.92 0 411.84 0 624 0 C624 123.42 624 246.84 624 374 C418.08 374 212.16 374 0 374 C0 250.58 0 127.16 0 0 Z " fill="#FEFEFE" transform="translate(0,0)"/>
<path d="M0 0 C48.84 0 97.68 0 148 0 C148 34.65 148 69.3 148 105 C99.16 105 50.32 105 0 105 C0 88.17 0 71.34 0 54 C-1.98 54.66 -3.96 55.32 -6 56 C-6 55.01 -6 54.02 -6 53 C-42.3 53 -78.6 53 -116 53 C-116 106.13 -116 159.26 -116 214 C-79.7 214 -43.4 214 -6 214 C-6 213.01 -6 212.02 -6 211 C-4.35 211.66 -2.7 212.32 -1 213 C-0.67 196.17 -0.34 179.34 0 162 C48.84 162 97.68 162 148 162 C148 196.32 148 230.64 148 266 C99.16 266 50.32 266 0 266 C0 249.17 0 232.34 0 215 C-1.485 215.99 -1.485 215.99 -3 217 C-3.99 217 -4.98 217 -6 217 C-6 216.34 -6 215.68 -6 215 C-42.96 215 -79.92 215 -118 215 C-118 188.6 -118 162.2 -118 135 C-156.61 135 -195.22 135 -235 135 C-235 156.12 -235 177.24 -235 199 C-279.22 199 -323.44 199 -369 199 C-369 156.1 -369 113.2 -369 69 C-324.78 69 -280.56 69 -235 69 C-235 90.45 -235 111.9 -235 134 C-196.39 134 -157.78 134 -118 134 C-118.03961576 107.38780733 -118.03961576 107.38780733 -118.09008789 80.77563477 C-118.09460449 75.6385498 -118.09460449 75.6385498 -118.09544373 73.23667908 C-118.09698329 71.55255367 -118.10050847 69.8684294 -118.10557556 68.18431091 C-118.11285292 65.63921176 -118.11390742 63.0941802 -118.11352539 60.54907227 C-118.1171235 59.79383302 -118.12072161 59.03859377 -118.12442875 58.26046848 C-118.11402634 53.11402634 -118.11402634 53.11402634 -117 52 C-115.55786001 51.90441964 -114.11105921 51.87811606 -112.66575623 51.87974548 C-111.26273758 51.87768349 -111.26273758 51.87768349 -109.83137512 51.87557983 C-108.79703842 51.87917511 -107.76270172 51.88277039 -106.69702148 51.88647461 C-105.61422913 51.88632858 -104.53143677 51.88618256 -103.41583252 51.8860321 C-99.81756626 51.88673177 -96.21935103 51.89452667 -92.62109375 51.90234375 C-90.13387582 51.90420774 -87.64665752 51.90563173 -85.15943909 51.90663147 C-79.26978809 51.9100665 -73.3801561 51.91795723 -67.49051291 51.92798096 C-60.12974626 51.94023754 -52.76897736 51.94562209 -45.40820312 51.95117188 C-32.27212602 51.96191185 -19.13606417 51.97879911 -6 52 C-6 51.34 -6 50.68 -6 50 C-4.02 50.66 -2.04 51.32 0 52 C0 34.84 0 17.68 0 0 Z " fill="#FAFAFA" transform="translate(420,53)"/>
<path d="M0 0 C43.23 0 86.46 0 131 0 C131 41.91 131 83.82 131 127 C87.77 127 44.54 127 0 127 C0 85.09 0 43.18 0 0 Z " fill="#FBFBFB" transform="translate(53,124)"/>
<path d="M0 0 C48.18 0 96.36 0 146 0 C146 33.66 146 67.32 146 102 C97.82 102 49.64 102 0 102 C0 68.34 0 34.68 0 0 Z " fill="#FAFAFA" transform="translate(421,216)"/>
<path d="M0 0 C48.84 0 97.68 0 148 0 C148 34.65 148 69.3 148 105 C99.16 105 50.32 105 0 105 C0 88.17 0 71.34 0 54 C-1.98 54.66 -3.96 55.32 -6 56 C-6 55.01 -6 54.02 -6 53 C-42.3 53 -78.6 53 -116 53 C-116 106.13 -116 159.26 -116 214 C-79.7 214 -43.4 214 -6 214 C-6 213.01 -6 212.02 -6 211 C-4.35 211.66 -2.7 212.32 -1 213 C-0.67 196.17 -0.34 179.34 0 162 C48.84 162 97.68 162 148 162 C148 196.32 148 230.64 148 266 C99.16 266 50.32 266 0 266 C0 249.17 0 232.34 0 215 C-1.485 215.99 -1.485 215.99 -3 217 C-3.99 217 -4.98 217 -6 217 C-6 216.34 -6 215.68 -6 215 C-42.96 215 -79.92 215 -118 215 C-118 188.6 -118 162.2 -118 135 C-156.61 135 -195.22 135 -235 135 C-235 156.12 -235 177.24 -235 199 C-279.22 199 -323.44 199 -369 199 C-369 156.1 -369 113.2 -369 69 C-324.78 69 -280.56 69 -235 69 C-235 90.45 -235 111.9 -235 134 C-196.39 134 -157.78 134 -118 134 C-118.03961576 107.38780733 -118.03961576 107.38780733 -118.09008789 80.77563477 C-118.09460449 75.6385498 -118.09460449 75.6385498 -118.09544373 73.23667908 C-118.09698329 71.55255367 -118.10050847 69.8684294 -118.10557556 68.18431091 C-118.11285292 65.63921176 -118.11390742 63.0941802 -118.11352539 60.54907227 C-118.1171235 59.79383302 -118.12072161 59.03859377 -118.12442875 58.26046848 C-118.11402634 53.11402634 -118.11402634 53.11402634 -117 52 C-115.55786001 51.90441964 -114.11105921 51.87811606 -112.66575623 51.87974548 C-111.26273758 51.87768349 -111.26273758 51.87768349 -109.83137512 51.87557983 C-108.79703842 51.87917511 -107.76270172 51.88277039 -106.69702148 51.88647461 C-105.61422913 51.88632858 -104.53143677 51.88618256 -103.41583252 51.8860321 C-99.81756626 51.88673177 -96.21935103 51.89452667 -92.62109375 51.90234375 C-90.13387582 51.90420774 -87.64665752 51.90563173 -85.15943909 51.90663147 C-79.26978809 51.9100665 -73.3801561 51.91795723 -67.49051291 51.92798096 C-60.12974626 51.94023754 -52.76897736 51.94562209 -45.40820312 51.95117188 C-32.27212602 51.96191185 -19.13606417 51.97879911 -6 52 C-6 51.34 -6 50.68 -6 50 C-4.02 50.66 -2.04 51.32 0 52 C0 34.84 0 17.68 0 0 Z M1 1 C1 34.66 1 68.32 1 103 C49.18 103 97.36 103 147 103 C147 69.34 147 35.68 147 1 C98.82 1 50.64 1 1 1 Z M-367 71 C-367 112.91 -367 154.82 -367 198 C-323.77 198 -280.54 198 -236 198 C-236 156.09 -236 114.18 -236 71 C-279.23 71 -322.46 71 -367 71 Z M1 163 C1 196.66 1 230.32 1 265 C49.18 265 97.36 265 147 265 C147 231.34 147 197.68 147 163 C98.82 163 50.64 163 1 163 Z " fill="#4D4F53" transform="translate(420,53)"/>
<path d="M0 0 C44.22 0 88.44 0 134 0 C134 42.9 134 85.8 134 130 C89.78 130 45.56 130 0 130 C0 87.1 0 44.2 0 0 Z M2 2 C2 43.91 2 85.82 2 129 C45.23 129 88.46 129 133 129 C133 87.09 133 45.18 133 2 C89.77 2 46.54 2 2 2 Z " fill="#292929" transform="translate(51,122)"/>
<path d="M0 0 C1.65 0 3.3 0 5 0 C5 0.99 5 1.98 5 3 C4.01 2.34 3.02 1.68 2 1 C2 4.3 2 7.6 2 11 C5.465 10.505 5.465 10.505 9 10 C8.67 9.67 8.34 9.34 8 9 C7.875 6.5 7.875 6.5 8 4 C9 3 9 3 11.5 2.875 C14 3 14 3 15 4 C15.125 6.5 15.125 6.5 15 9 C14.67 9.33 14.34 9.66 14 10 C15.32 10.33 16.64 10.66 18 11 C17.34 8.36 16.68 5.72 16 3 C16.66 3 17.32 3 18 3 C18 3.99 18 4.98 18 6 C18.66 6 19.32 6 20 6 C20 5.01 20 4.02 20 3 C20.99 3.33 21.98 3.66 23 4 C23.33 4.99 23.66 5.98 24 7 C24.33 5.68 24.66 4.36 25 3 C28.27275026 3 30.846632 3.29925156 34 4 C34 4.99 34 5.98 34 7 C32.68 7.33 31.36 7.66 30 8 C30.928125 8.4640625 30.928125 8.4640625 31.875 8.9375 C33.25 9.625 34.625 10.3125 36 11 C36 8.36 36 5.72 36 3 C37.32 3.33 38.64 3.66 40 4 C39.34 4 38.68 4 38 4 C38 6.31 38 8.62 38 11 C39.98 11 41.96 11 44 11 C43.01 7.37 42.02 3.74 41 0 C41.66 0 42.32 0 43 0 C43.66 1.98 44.32 3.96 45 6 C45.99 4.02 46.98 2.04 48 0 C50.64 0 53.28 0 56 0 C55.67 0.66 55.34 1.32 55 2 C54.34 2 53.68 2 53 2 C52.67 2.66 52.34 3.32 52 4 C54.475 4.99 54.475 4.99 57 6 C56.7215625 6.8971875 56.7215625 6.8971875 56.4375 7.8125 C55.77906313 10.16408762 55.77906313 10.16408762 57 13 C37.86 13 18.72 13 -1 13 C-0.67 8.71 -0.34 4.42 0 0 Z " fill="#FDCACA" transform="translate(430,225)"/>
<path d="M0 0 C0.66 0 1.32 0 2 0 C2.66 1.65 3.32 3.3 4 5 C5.93798263 2.22739701 5.93798263 2.22739701 7 0 C9.64 0 12.28 0 15 0 C14.01 0.99 13.02 1.98 12 3 C13.32 3.99 14.64 4.98 16 6 C15.79375 6.61875 15.5875 7.2375 15.375 7.875 C15.189375 8.926875 15.189375 8.926875 15 10 C15.66 10.66 16.32 11.32 17 12 C13.79667766 12.9501315 10.9239887 13.12131773 7.58886719 13.11352539 C6.50804871 13.11344986 5.42723022 13.11337433 4.31365967 13.11329651 C3.15312073 13.10813522 1.99258179 13.10297394 0.796875 13.09765625 C-0.39605164 13.0962413 -1.58897827 13.09482635 -2.8180542 13.09336853 C-6.62872829 13.08777038 -10.43934366 13.07521819 -14.25 13.0625 C-16.83333248 13.05748476 -19.41666589 13.0529219 -22 13.04882812 C-28.33335337 13.03780155 -34.66667249 13.02106524 -41 13 C-41.33 12.34 -41.66 11.68 -42 11 C-38.7 10.67 -35.4 10.34 -32 10 C-32.33 9.67 -32.66 9.34 -33 9 C-33.1875 6.5625 -33.1875 6.5625 -33 4 C-32.34 3.34 -31.68 2.68 -31 2 C-29.125 2.375 -29.125 2.375 -27 3 C-25.68 3 -24.36 3 -23 3 C-22.67 3.66 -22.34 4.32 -22 5 C-21.67 4.34 -21.34 3.68 -21 3 C-19.68 3.66 -18.36 4.32 -17 5 C-16.67 4.34 -16.34 3.68 -16 3 C-10.41860465 2.87315011 -10.41860465 2.87315011 -7.9375 3.625 C-5.18985816 4.15680165 -3.4756217 3.16904358 -1 2 C-0.505 2.99 -0.505 2.99 0 4 C-0.66 4.33 -1.32 4.66 -2 5 C-2.65555119 7.52733235 -2.65555119 7.52733235 -3 10 C-1.02 10 0.96 10 3 10 C2.01 6.7 1.02 3.4 0 0 Z " fill="#F8BABA" transform="translate(471,63)"/>
<path d="M0 0 C65.835 0.495 65.835 0.495 133 1 C133 1.33 133 1.66 133 2 C89.77 2 46.54 2 2 2 C2 43.91 2 85.82 2 129 C1.34 129.33 0.68 129.66 0 130 C0 87.1 0 44.2 0 0 Z " fill="#6D6D6D" transform="translate(51,122)"/>
<path d="M0 0 C38.94 0 77.88 0 118 0 C118.33 26.07 118.66 52.14 119 79 C173.45 79.495 173.45 79.495 229 80 C229 79.01 229 78.02 229 77 C233.875 78.75 233.875 78.75 235 81 C232 83 232 83 229 83 C229 82.34 229 81.68 229 81 C192.04 81 155.08 81 117 81 C117 54.6 117 28.2 117 1 C78.39 1 39.78 1 0 1 C0 0.67 0 0.34 0 0 Z " fill="#A1B9E1" transform="translate(185,187)"/>
<path d="M0 0 C0.66 0.33 1.32 0.66 2 1 C2.33 1.99 2.66 2.98 3 4 C3.66 2.68 4.32 1.36 5 0 C6.98 0 8.96 0 11 0 C11 2.33333333 11 4.66666667 11 7 C11.66 7.33 12.32 7.66 13 8 C13 8.66 13 9.32 13 10 C8.91672643 10.0580772 4.83355917 10.09362249 0.75 10.125 C-0.98830078 10.15013672 -0.98830078 10.15013672 -2.76171875 10.17578125 C-3.87675781 10.18222656 -4.99179687 10.18867188 -6.140625 10.1953125 C-7.16704102 10.20578613 -8.19345703 10.21625977 -9.25097656 10.22705078 C-12.01984288 9.99836111 -13.64418792 9.4243299 -16 8 C-15.67 7.67 -15.34 7.34 -15 7 C-15.66 7 -16.32 7 -17 7 C-17.33 5.35 -17.66 3.7 -18 2 C-13.66666667 2 -9.33333333 2 -5 2 C-5.020625 2.804375 -5.04125 3.60875 -5.0625 4.4375 C-5.29633621 6.93354885 -5.29633621 6.93354885 -4 8 C-4 6.02 -4 4.04 -4 2 C-2.68 2 -1.36 2 0 2 C0 1.34 0 0.68 0 0 Z " fill="#CEA5A5" transform="translate(266,141)"/>
<path d="M0 0 C1.65 0 3.3 0 5 0 C5 0.99 5 1.98 5 3 C4.01 2.34 3.02 1.68 2 1 C2 4.3 2 7.6 2 11 C5.465 10.505 5.465 10.505 9 10 C8.67 9.67 8.34 9.34 8 9 C7.875 6.5 7.875 6.5 8 4 C9 3 9 3 11.5 2.875 C14 3 14 3 15 4 C15.125 6.5 15.125 6.5 15 9 C14.67 9.33 14.34 9.66 14 10 C16.93443402 9.73343428 16.93443402 9.73343428 20 9 C20.66 8.01 21.32 7.02 22 6 C22.33 6.99 22.66 7.98 23 9 C26.00847418 10.22520264 26.00847418 10.22520264 29 11 C29 11.66 29 12.32 29 13 C19.1 13 9.2 13 -1 13 C-0.67 8.71 -0.34 4.42 0 0 Z " fill="#EAB9B9" transform="translate(430,225)"/>
<path d="M0 0 C1.98 0.66 3.96 1.32 6 2 C6 2.66 6 3.32 6 4 C4.02 4.66 2.04 5.32 0 6 C0 5.01 0 4.02 0 3 C-54.945 3.495 -54.945 3.495 -111 4 C-111 3.34 -111 2.68 -111 2 C-74.37 2 -37.74 2 0 2 C0 1.34 0 0.68 0 0 Z " fill="#ACC0E4" transform="translate(414,103)"/>
<path d="M0 0 C0.66 0 1.32 0 2 0 C2.66 1.65 3.32 3.3 4 5 C5.93798263 2.22739701 5.93798263 2.22739701 7 0 C9.64 0 12.28 0 15 0 C13.515 1.485 13.515 1.485 12 3 C13.32 3.99 14.64 4.98 16 6 C15.125 9.875 15.125 9.875 14 11 C6.70588235 11.23529412 6.70588235 11.23529412 3 10 C2.05078125 7.71484375 2.05078125 7.71484375 1.3125 4.9375 C1.06113281 4.01839844 0.80976563 3.09929687 0.55078125 2.15234375 C0.36902344 1.44207031 0.18726563 0.73179688 0 0 Z " fill="#8A8989" transform="translate(471,63)"/>
<path d="M0 0 C3.68266103 0.59950296 7.34543185 1.24758891 11 2 C10.95875 2.78375 10.9175 3.5675 10.875 4.375 C10.71271266 7.16116119 10.71271266 7.16116119 13 9 C8.59085217 10.10228696 4.51617599 10.07654536 0 10 C0 6.7 0 3.4 0 0 Z " fill="#F6F6F6" transform="translate(236,141)"/>
<path d="M0 0 C-0.33 0.66 -0.66 1.32 -1 2 C-1.66 2 -2.32 2 -3 2 C-3.33 2.66 -3.66 3.32 -4 4 C-1.525 4.99 -1.525 4.99 1 6 C0.7215625 6.8971875 0.7215625 6.8971875 0.4375 7.8125 C-0.22093687 10.16408762 -0.22093687 10.16408762 1 13 C-1.97 13 -4.94 13 -8 13 C-9.10558038 8.35656242 -9.028972 5.36228979 -7 1 C-4 0 -4 0 0 0 Z " fill="#A7A7A7" transform="translate(486,225)"/>
<path d="M0 0 C2.5625 0.25 2.5625 0.25 5 1 C5.33 1.66 5.66 2.32 6 3 C6.61875 2.79375 7.2375 2.5875 7.875 2.375 C8.926875 2.189375 8.926875 2.189375 10 2 C10.66 2.66 11.32 3.32 12 4 C11.625 6.125 11.625 6.125 11 8 C6.71270043 9.18270333 3.32258207 9.02376944 -1 8 C-2 7 -2 7 -2.1875 4.5625 C-2 2 -2 2 0 0 Z " fill="#A7A7A7" transform="translate(494,125)"/>
<path d="M0 0 C1.64671412 0.30782496 3.29235576 0.62139234 4.9375 0.9375 C5.85402344 1.11152344 6.77054688 1.28554687 7.71484375 1.46484375 C10 2 10 2 11 3 C11.04092937 5.33297433 11.04241723 7.66705225 11 10 C7.7 10 4.4 10 1 10 C-1.125 3.375 -1.125 3.375 0 0 Z " fill="#D9D9D9" transform="translate(511,226)"/>
<path d="M0 0 C0.9075 0.165 1.815 0.33 2.75 0.5 C5.91372977 0.98672766 7.94173339 0.80954116 11 0 C11.33 1.32 11.66 2.64 12 4 C10.68 4.33 9.36 4.66 8 5 C9.32 5.66 10.64 6.32 12 7 C10.125 7.625 10.125 7.625 8 8 C7.34 7.34 6.68 6.68 6 6 C4.35 6.66 2.7 7.32 1 8 C-1 6 -1 6 -1.1875 3.4375 C-1 1 -1 1 0 0 Z " fill="#979797" transform="translate(533,228)"/>
<path d="M0 0 C1.134375 0.020625 2.26875 0.04125 3.4375 0.0625 C3.4375 1.7125 3.4375 3.3625 3.4375 5.0625 C4.4275 5.0625 5.4175 5.0625 6.4375 5.0625 C6.4375 3.4125 6.4375 1.7625 6.4375 0.0625 C6.7675 0.0625 7.0975 0.0625 7.4375 0.0625 C7.4375 2.0425 7.4375 4.0225 7.4375 6.0625 C3.6875 7.1875 3.6875 7.1875 1.4375 6.0625 C1.1075 7.0525 0.7775 8.0425 0.4375 9.0625 C-1.2125 9.0625 -2.8625 9.0625 -4.5625 9.0625 C-4.66015625 2.91015625 -4.66015625 2.91015625 -4.5625 1.0625 C-3.5625 0.0625 -3.5625 0.0625 0 0 Z " fill="#8B8B8B" transform="translate(527.5625,288.9375)"/>
<path d="M0 0 C0 3.3 0 6.6 0 10 C-3.375 10.125 -3.375 10.125 -7 10 C-9 8 -9 8 -9.25 5.5 C-9 3 -9 3 -7 1 C-4.60938484 0.40234621 -2.46474039 0 0 0 Z " fill="#707070" transform="translate(460,286)"/>
<path d="M0 0 C0.66 0 1.32 0 2 0 C2 3.3 2 6.6 2 10 C-1.375 10.125 -1.375 10.125 -5 10 C-5.66 9.34 -6.32 8.68 -7 8 C-6.625 4.375 -6.625 4.375 -6 1 C-4.7934375 1.0309375 -4.7934375 1.0309375 -3.5625 1.0625 C-1.06645115 1.29633621 -1.06645115 1.29633621 0 0 Z " fill="#9E9E9E" transform="translate(457,124)"/>
<path d="M0 0 C1.485 0.99 1.485 0.99 3 2 C3.33 1.34 3.66 0.68 4 0 C4.66 0 5.32 0 6 0 C6.33 0.66 6.66 1.32 7 2 C7.33 1.34 7.66 0.68 8 0 C10.31 0 12.62 0 15 0 C16 4.75 16 4.75 16 7 C11.25 6.125 11.25 6.125 9 5 C8.67 5.66 8.34 6.32 8 7 C7.34 7 6.68 7 6 7 C5.67 6.34 5.34 5.68 5 5 C4.67 5.66 4.34 6.32 4 7 C3.01 6.67 2.02 6.34 1 6 C0.67 4.02 0.34 2.04 0 0 Z " fill="#656565" transform="translate(465,272)"/>
<path d="M0 0 C0.66 0.33 1.32 0.66 2 1 C2.33 1.99 2.66 2.98 3 4 C3.66 2.68 4.32 1.36 5 0 C6.65 1.65 8.3 3.3 10 5 C9.01 5.33 8.02 5.66 7 6 C7 6.66 7 7.32 7 8 C3.37 8 -0.26 8 -4 8 C-4 6.02 -4 4.04 -4 2 C-2.68 2 -1.36 2 0 2 C0 1.34 0 0.68 0 0 Z " fill="#AAAAAA" transform="translate(266,141)"/>
<path d="M0 0 C0.66 0 1.32 0 2 0 C2.66 1.98 3.32 3.96 4 6 C4.99 4.02 5.98 2.04 7 0 C7.66 0.33 8.32 0.66 9 1 C8.01 4.3 7.02 7.6 6 11 C6.66 11.33 7.32 11.66 8 12 C3.74500059 13.16045439 0.31104861 12.82904781 -4 12 C-5 11 -5 11 -5.09765625 9.15234375 C-5.06510417 7.1015625 -5.03255208 5.05078125 -5 3 C-3.68 3.33 -2.36 3.66 -1 4 C-1.66 4 -2.32 4 -3 4 C-3 6.31 -3 8.62 -3 11 C-1.02 11 0.96 11 3 11 C2.01 7.37 1.02 3.74 0 0 Z " fill="#746161" transform="translate(471,225)"/>
<path d="M0 0 C2.0625 0.25 2.0625 0.25 4 1 C4.33 1.66 4.66 2.32 5 3 C6.32 2.67 7.64 2.34 9 2 C10.125 5.75 10.125 5.75 9 8 C5.7 8 2.4 8 -1 8 C-1.625 5.125 -1.625 5.125 -2 2 C-1.34 1.34 -0.68 0.68 0 0 Z " fill="#BEBEBE" transform="translate(216,213)"/>
<path d="M0 0 C1.2375 0.185625 2.475 0.37125 3.75 0.5625 C6.76279577 0.94711223 9.10010827 1.0874594 12 0 C11.01 0.495 11.01 0.495 10 1 C10 1.66 10 2.32 10 3 C10.99 3.33 11.98 3.66 13 4 C12.67 5.32 12.34 6.64 12 8 C9.69 8 7.38 8 5 8 C4.67 6.02 4.34 4.04 4 2 C3.67 2 3.34 2 3 2 C2.67 3.98 2.34 5.96 2 8 C1.34 8 0.68 8 0 8 C0 5.36 0 2.72 0 0 Z " fill="#8F8F8F" transform="translate(496,228)"/>
<path d="M0 0 C1 1 1 1 1.0625 3.5625 C1.041875 4.366875 1.02125 5.17125 1 6 C-9 6 -9 6 -12 5 C-11.67 3.35 -11.34 1.7 -11 0 C-7.17998192 -1.37520651 -3.92473073 -0.74051523 0 0 Z " fill="#E2E2E2" transform="translate(215,201)"/>
<path d="M0 0 C1.8125 0.3125 1.8125 0.3125 4 1 C7.59816882 2.0214834 7.59816882 2.0214834 11 1 C11 1.99 11 2.98 11 4 C9.35 4 7.7 4 6 4 C6.33 4.66 6.66 5.32 7 6 C8.32 6 9.64 6 11 6 C11 6.66 11 7.32 11 8 C8.66666667 8 6.33333333 8 4 8 C3.154375 8.020625 2.30875 8.04125 1.4375 8.0625 C-1 8 -1 8 -2 7 C-2.1875 4.5625 -2.1875 4.5625 -2 2 C-1.34 1.34 -0.68 0.68 0 0 Z " fill="#767676" transform="translate(534,65)"/>
<path d="M0 0 C0.66 0.66 1.32 1.32 2 2 C1.01 2.495 1.01 2.495 0 3 C-0.65555119 5.52733235 -0.65555119 5.52733235 -1 8 C-2.47906892 8.02689216 -3.95827483 8.04634621 -5.4375 8.0625 C-6.67306641 8.07990234 -6.67306641 8.07990234 -7.93359375 8.09765625 C-10 8 -10 8 -11 7 C-11.04063832 5.33382885 -11.042721 3.66611905 -11 2 C-8.10765685 1.17361624 -6.11257569 1 -3 1 C-2.01 0.67 -1.02 0.34 0 0 Z " fill="#6B6B6B" transform="translate(469,65)"/>
<path d="M0 0 C1.64574566 -0.02688151 3.29161413 -0.04634123 4.9375 -0.0625 C5.85402344 -0.07410156 6.77054687 -0.08570313 7.71484375 -0.09765625 C10 0 10 0 11 1 C11.04092937 3.33297433 11.04241723 5.66705225 11 8 C9.35 8 7.7 8 6 8 C6 4 6 4 7 3 C5.35 2.67 3.7 2.34 2 2 C2 3.98 2 5.96 2 8 C1.34 8 0.68 8 0 8 C0 5.36 0 2.72 0 0 Z " fill="#5E5E5E" transform="translate(94,135)"/>
<path d="M0 0 C0.66 0 1.32 0 2 0 C2 3.3 2 6.6 2 10 C-0.64 10 -3.28 10 -6 10 C-6 7.03 -6 4.06 -6 1 C-5.67 1.99 -5.34 2.98 -5 4 C-3.68 4 -2.36 4 -1 4 C-0.67 2.68 -0.34 1.36 0 0 Z " fill="#717171" transform="translate(125,202)"/>
<path d="M0 0 C0.66 0 1.32 0 2 0 C2 2.64 2 5.28 2 8 C-0.64 8 -3.28 8 -6 8 C-6 6.68 -6 5.36 -6 4 C-6.66 4 -7.32 4 -8 4 C-8.33 5.32 -8.66 6.64 -9 8 C-9 6.02 -9 4.04 -9 2 C-7.68 2 -6.36 2 -5 2 C-5 2.66 -5 3.32 -5 4 C-3.35 3.34 -1.7 2.68 0 2 C0 1.34 0 0.68 0 0 Z " fill="#8D8D8D" transform="translate(209,213)"/>
<path d="M0 0 C2.475 0.495 2.475 0.495 5 1 C5.99 3.97 6.98 6.94 8 10 C5.36 10 2.72 10 0 10 C0 6.7 0 3.4 0 0 Z " fill="#F3F3F3" transform="translate(432,226)"/>
<path d="M0 0 C2.97 0 5.94 0 9 0 C9 1.98 9 3.96 9 6 C7.125 6.625 7.125 6.625 5 7 C4.34 6.34 3.68 5.68 3 5 C2.67 5.66 2.34 6.32 2 7 C1.34 7 0.68 7 0 7 C0 4.69 0 2.38 0 0 Z " fill="#A8A8A8" transform="translate(112,189)"/>
<path d="M0 0 C2.64 0 5.28 0 8 0 C7.125 4.875 7.125 4.875 6 6 C6.99 6.66 7.98 7.32 9 8 C6.03 8 3.06 8 0 8 C0 5.36 0 2.72 0 0 Z " fill="#A1A1A1" transform="translate(111,135)"/>
<path d="M0 0 C3.34252724 -0.07427838 5.8035914 -0.06546953 9 1 C9 1.66 9 2.32 9 3 C9.66 3 10.32 3 11 3 C11.33 2.34 11.66 1.68 12 1 C11.67 2.65 11.34 4.3 11 6 C2.625 6 2.625 6 -1 5 C-0.67 3.35 -0.34 1.7 0 0 Z " fill="#9A9A9A" transform="translate(246,201)"/>
<path d="M0 0 C1.2065625 0.0309375 1.2065625 0.0309375 2.4375 0.0625 C2.251875 0.805 2.06625 1.5475 1.875 2.3125 C1.44546892 5.01240963 1.58627026 6.50881077 2.4375 9.0625 C0.78135343 9.44468767 -0.88707024 9.77645102 -2.5625 10.0625 C-3.5625 9.0625 -3.5625 9.0625 -3.6953125 7.25 C-3.69273437 6.528125 -3.69015625 5.80625 -3.6875 5.0625 C-3.69007813 4.340625 -3.69265625 3.61875 -3.6953125 2.875 C-3.48140927 -0.04414996 -2.93781989 0.07165414 0 0 Z " fill="#666666" transform="translate(524.5625,126.9375)"/>
<path d="M0 0 C1.65 0 3.3 0 5 0 C5 0.99 5 1.98 5 3 C4.01 2.34 3.02 1.68 2 1 C2 4.3 2 7.6 2 11 C5.3 11 8.6 11 12 11 C12.33 11.66 12.66 12.32 13 13 C8.38 13 3.76 13 -1 13 C-0.67 8.71 -0.34 4.42 0 0 Z " fill="#9C7A7A" transform="translate(430,225)"/>
<path d="M0 0 C1.65 0 3.3 0 5 0 C5 3.3 5 6.6 5 10 C4.34 10 3.68 10 3 10 C2.67 8.68 2.34 7.36 2 6 C1.67 7.32 1.34 8.64 1 10 C0.34 10 -0.32 10 -1 10 C-2.25 3.375 -2.25 3.375 0 0 Z " fill="#878787" transform="translate(517,286)"/>
<path d="M0 0 C1.11375 0.2475 1.11375 0.2475 2.25 0.5 C5.18606431 1.03382988 7.13588733 0.73648612 10 0 C9.34 0.66 8.68 1.32 8 2 C7.7525 2.680625 7.505 3.36125 7.25 4.0625 C6 6 6 6 2.9375 6.8125 C1.4834375 6.9053125 1.4834375 6.9053125 0 7 C-1 6 -1 6 -1.125 3.5 C-1 1 -1 1 0 0 Z " fill="#5B5B5B" transform="translate(480,289)"/>
<path d="M0 0 C1.67542976 0.28604898 3.34385343 0.61781233 5 1 C5 2.98 5 4.96 5 7 C2.625 7.625 2.625 7.625 0 8 C-0.66 7.34 -1.32 6.68 -2 6 C-1.44444444 1.44444444 -1.44444444 1.44444444 0 0 Z " fill="#414141" transform="translate(153,135)"/>
<path d="M0 0 C3.53571429 0.53571429 3.53571429 0.53571429 5 2 C5.125 4.5 5.125 4.5 5 7 C4 8 4 8 1.5 8.125 C-1 8 -1 8 -2 7 C-2.1875 4.5625 -2.1875 4.5625 -2 2 C-1.34 1.34 -0.68 0.68 0 0 Z " fill="#3E3F3F" transform="translate(440,65)"/>
<path d="M0 0 C1.98 0 3.96 0 6 0 C6.33 1.65 6.66 3.3 7 5 C5.35 5.33 3.7 5.66 2 6 C2 7.32 2 8.64 2 10 C1.34 10 0.68 10 0 10 C0 6.7 0 3.4 0 0 Z " fill="#6F6F6F" transform="translate(430,63)"/>
<path d="M0 0 C2.05078125 0.03255208 4.1015625 0.06510417 6.15234375 0.09765625 C6.15234375 2.09765625 6.15234375 4.09765625 6.15234375 6.09765625 C5.57484375 5.91203125 4.99734375 5.72640625 4.40234375 5.53515625 C1.9454185 5.05742079 0.50836841 5.34036261 -1.84765625 6.09765625 C-2.22984392 4.44150968 -2.56160727 2.77308601 -2.84765625 1.09765625 C-1.84765625 0.09765625 -1.84765625 0.09765625 0 0 Z " fill="#B4B4B4" transform="translate(225.84765625,156.90234375)"/>
<path d="M0 0 C0.33 0 0.66 0 1 0 C1 3.63 1 7.26 1 11 C-0.65 11 -2.3 11 -4 11 C-5 10 -5 10 -5.0625 6.9375 C-5.041875 5.968125 -5.02125 4.99875 -5 4 C-4.0409375 3.8453125 -4.0409375 3.8453125 -3.0625 3.6875 C-2.381875 3.460625 -1.70125 3.23375 -1 3 C-0.67 2.01 -0.34 1.02 0 0 Z " fill="#282828" transform="translate(165,132)"/>
<path d="M0 0 C0.33 0 0.66 0 1 0 C1 3.63 1 7.26 1 11 C-0.65 11 -2.3 11 -4 11 C-5 10 -5 10 -5.0625 6.9375 C-5.041875 5.968125 -5.02125 4.99875 -5 4 C-4.0409375 3.8453125 -4.0409375 3.8453125 -3.0625 3.6875 C-2.381875 3.460625 -1.70125 3.23375 -1 3 C-0.67 2.01 -0.34 1.02 0 0 Z " fill="#252525" transform="translate(134,132)"/>
<path d="M0 0 C3.3 0 6.6 0 10 0 C10.33 1.98 10.66 3.96 11 6 C8.69 6.33 6.38 6.66 4 7 C4 5.02 4 3.04 4 1 C3.01 1 2.02 1 1 1 C1 2.65 1 4.3 1 6 C0.67 6 0.34 6 0 6 C0 4.02 0 2.04 0 0 Z " fill="#6F6F6F" transform="translate(103,206)"/>
<path d="M0 0 C2.64 0.66 5.28 1.32 8 2 C8 3.65 8 5.3 8 7 C4.71303767 7.79953138 3.28976808 8.09658936 0 7 C0 4.69 0 2.38 0 0 Z " fill="#A9A9A9" transform="translate(214,227)"/>
<path d="M0 0 C2.5 0.125 2.5 0.125 3.5 1.125 C3.625 3.625 3.625 3.625 3.5 6.125 C2.5 7.125 2.5 7.125 0 7.25 C-2.5 7.125 -2.5 7.125 -3.5 6.125 C-3.625 3.625 -3.625 3.625 -3.5 1.125 C-2.5 0.125 -2.5 0.125 0 0 Z " fill="#353535" transform="translate(441.5,227.875)"/>
<path d="M0 0 C0.99 0 1.98 0 3 0 C4.6875 2.5 4.6875 2.5 6 5 C6.33 3.35 6.66 1.7 7 0 C7.33 0 7.66 0 8 0 C8 3.3 8 6.6 8 10 C7.34 10 6.68 10 6 10 C4.375 7.5 4.375 7.5 3 5 C2.67 6.65 2.34 8.3 2 10 C1.34 10 0.68 10 0 10 C0 6.7 0 3.4 0 0 Z " fill="#383838" transform="translate(141,133)"/>
<path d="M0 0 C2.01822917 0.06510417 4.03645833 0.13020833 6.0546875 0.1953125 C5.3946875 2.1753125 4.7346875 4.1553125 4.0546875 6.1953125 C1.7446875 6.1953125 -0.5653125 6.1953125 -2.9453125 6.1953125 C-3.5703125 4.3203125 -3.5703125 4.3203125 -3.9453125 2.1953125 C-1.9453125 0.1953125 -1.9453125 0.1953125 0 0 Z " fill="#999999" transform="translate(225.9453125,169.8046875)"/>
<path d="M0 0 C1.65 0 3.3 0 5 0 C5 3.3 5 6.6 5 10 C4.34 10 3.68 10 3 10 C3 8.35 3 6.7 3 5 C2.34 5 1.68 5 1 5 C1 6.65 1 8.3 1 10 C0.67 10 0.34 10 0 10 C-1.125 3.375 -1.125 3.375 0 0 Z " fill="#797979" transform="translate(515,124)"/>
<path d="M0 0 C0.66 0 1.32 0 2 0 C2.33 0.66 2.66 1.32 3 2 C3.33 1.34 3.66 0.68 4 0 C5.32 0.66 6.64 1.32 8 2 C8.33 1.34 8.66 0.68 9 0 C9.66 0.33 10.32 0.66 11 1 C10.34 2.98 9.68 4.96 9 7 C8.401875 6.814375 7.80375 6.62875 7.1875 6.4375 C4.83591238 5.77906313 4.83591238 5.77906313 2 7 C1.34 4.69 0.68 2.38 0 0 Z " fill="#3F3F3F" transform="translate(446,66)"/>
<path d="M0 0 C2.12508244 3.18762365 2.5020163 5.26512223 3 9 C1.02 9 -0.96 9 -3 9 C-3.1875 5.625 -3.1875 5.625 -3 2 C-2.01 1.34 -1.02 0.68 0 0 Z " fill="#F1F1F1" transform="translate(471,227)"/>
<path d="M0 0 C0 2.31 0 4.62 0 7 C-0.99 6.67 -1.98 6.34 -3 6 C-3 4.68 -3 3.36 -3 2 C-3.99 2.495 -3.99 2.495 -5 3 C-5 4.32 -5 5.64 -5 7 C-6.32 6.67 -7.64 6.34 -9 6 C-8.34 5.34 -7.68 4.68 -7 4 C-7.3185177 1.89179203 -7.3185177 1.89179203 -8 0 C-4.71303767 -0.79953138 -3.28976808 -1.09658936 0 0 Z " fill="#6F6F6F" transform="translate(476,127)"/>
<path d="M0 0 C0.94875 0.04125 1.8975 0.0825 2.875 0.125 C2.875 2.435 2.875 4.745 2.875 7.125 C2.215 7.125 1.555 7.125 0.875 7.125 C0.875 5.475 0.875 3.825 0.875 2.125 C-0.445 2.125 -1.765 2.125 -3.125 2.125 C-3.125 3.445 -3.125 4.765 -3.125 6.125 C-2.135 6.125 -1.145 6.125 -0.125 6.125 C-0.125 6.785 -0.125 7.445 -0.125 8.125 C-1.445 7.795 -2.765 7.465 -4.125 7.125 C-4.75 4.75 -4.75 4.75 -5.125 2.125 C-3.125 0.125 -3.125 0.125 0 0 Z " fill="#8B8B8B" transform="translate(199.125,226.875)"/>
<path d="M0 0 C0.66 0.66 1.32 1.32 2 2 C2.8971875 1.505 2.8971875 1.505 3.8125 1 C6 0 6 0 9 0 C8.67 1.98 8.34 3.96 8 6 C5.6875 6.6875 5.6875 6.6875 3 7 C1.1875 5.8125 1.1875 5.8125 0 4 C0 2.68 0 1.36 0 0 Z " fill="#5D5D5D" transform="translate(464,110)"/>
<path d="M0 0 C1.66611905 -0.042721 3.33382885 -0.04063832 5 0 C6 1 6 1 6.0625 4.5625 C6.041875 5.696875 6.02125 6.83125 6 8 C4.35 8 2.7 8 1 8 C0.67 6.68 0.34 5.36 0 4 C1.32 3.67 2.64 3.34 4 3 C4 2.34 4 1.68 4 1 C2.68 0.67 1.36 0.34 0 0 Z " fill="#5E5E5E" transform="translate(516,228)"/>
<path d="M0 0 C0.66 0 1.32 0 2 0 C2.99 2.97 3.98 5.94 5 9 C3.02 8.34 1.04 7.68 -1 7 C-1 7.66 -1 8.32 -1 9 C-1.66 9 -2.32 9 -3 9 C-2.01 6.03 -1.02 3.06 0 0 Z " fill="#5E5E5E" transform="translate(498,270)"/>
<path d="M0 0 C2.125 0.375 2.125 0.375 4 1 C4 2.65 4 4.3 4 6 C2.35 6.33 0.7 6.66 -1 7 C-1.625 4.625 -1.625 4.625 -2 2 C-1.34 1.34 -0.68 0.68 0 0 Z " fill="#7F7F7F" transform="translate(460,272)"/>
<path d="M0 0 C2.0625 0.4375 2.0625 0.4375 4 1 C4.33 2.65 4.66 4.3 5 6 C3.34385343 6.38218767 1.67542976 6.71395102 0 7 C-1 6 -1 6 -1.125 3.5 C-1 1 -1 1 0 0 Z " fill="#7F7F7F" transform="translate(458,110)"/>
<path d="M0 0 C3.69230769 0.69230769 3.69230769 0.69230769 5 2 C5.04080783 3.99958364 5.04254356 6.00045254 5 8 C3.02 8 1.04 8 -1 8 C-1 6.68 -1 5.36 -1 4 C0.32 4 1.64 4 3 4 C3 3.34 3 2.68 3 2 C1.68 1.67 0.36 1.34 -1 1 C-0.67 0.67 -0.34 0.34 0 0 Z " fill="#575757" transform="translate(517,65)"/>
<path d="M0 0 C1.65 0.33 3.3 0.66 5 1 C5 2.65 5 4.3 5 6 C3.125 6.625 3.125 6.625 1 7 C0.34 6.34 -0.32 5.68 -1 5 C-0.625 2.375 -0.625 2.375 0 0 Z " fill="#7E7E7E" transform="translate(502,289)"/>
<path d="M0 0 C1.32 0 2.64 0 4 0 C4 2.31 4 4.62 4 7 C2.0625 7.5625 2.0625 7.5625 0 8 C-1 7 -1 7 -1.125 4 C-1 1 -1 1 0 0 Z " fill="#878787" transform="translate(251,229)"/>
<path d="M0 0 C2.33294775 -0.04241723 4.66702567 -0.04092937 7 0 C8 1 8 1 8.0625 3.5625 C8.041875 4.366875 8.02125 5.17125 8 6 C6.35 6 4.7 6 3 6 C3 4.68 3 3.36 3 2 C2.34 2 1.68 2 1 2 C0.67 3.32 0.34 4.64 0 6 C0 4.02 0 2.04 0 0 Z " fill="#838383" transform="translate(233,170)"/>
<path d="M0 0 C3.11257569 0 5.10765685 0.17361624 8 1 C7.34 2.65 6.68 4.3 6 6 C3.66666667 6 1.33333333 6 -1 6 C-1.042721 4.33388095 -1.04063832 2.66617115 -1 1 C-0.67 0.67 -0.34 0.34 0 0 Z " fill="#898989" transform="translate(201,170)"/>
<path d="M0 0 C0.99 1.485 0.99 1.485 2 3 C1.67 3.99 1.34 4.98 1 6 C1.433125 5.525625 1.86625 5.05125 2.3125 4.5625 C4 3 4 3 7 2 C8 3 8 3 8.0625 5.5625 C8.041875 6.366875 8.02125 7.17125 8 8 C5.66705225 8.04241723 3.33297433 8.04092937 1 8 C0 7 0 7 -0.0625 3.4375 C-0.041875 2.303125 -0.02125 1.16875 0 0 Z " fill="#808080" transform="translate(208,155)"/>
<path d="M0 0 C1.67542976 0.28604898 3.34385343 0.61781233 5 1 C5 1.99 5 2.98 5 4 C3.68 4.33 2.36 4.66 1 5 C2.32 5.66 3.64 6.32 5 7 C1.25 8.125 1.25 8.125 -1 7 C-1.04254356 5.00045254 -1.04080783 2.99958364 -1 1 C-0.67 0.67 -0.34 0.34 0 0 Z " fill="#505151" transform="translate(459,228)"/>
<path d="M0 0 C0.66 0 1.32 0 2 0 C2 0.99 2 1.98 2 3 C2.66 3 3.32 3 4 3 C4 2.01 4 1.02 4 0 C7 1 7 1 9 4 C9 4.99 9 5.98 9 7 C8.401875 6.814375 7.80375 6.62875 7.1875 6.4375 C4.83591238 5.77906313 4.83591238 5.77906313 2 7 C1.34 4.69 0.68 2.38 0 0 Z " fill="#3C3C3C" transform="translate(446,228)"/>
<path d="M0 0 C0 2.97 0 5.94 0 9 C0.66 9 1.32 9 2 9 C2 9.66 2 10.32 2 11 C0.02 11 -1.96 11 -4 11 C-4 10.34 -4 9.68 -4 9 C-3.34 9 -2.68 9 -2 9 C-2 7.02 -2 5.04 -2 3 C-2.66 3 -3.32 3 -4 3 C-4 2.34 -4 1.68 -4 1 C-2 0 -2 0 0 0 Z " fill="#555555" transform="translate(555,225)"/>
<path d="M0 0 C1.65 0 3.3 0 5 0 C5 2.31 5 4.62 5 7 C3.0625 7.5625 3.0625 7.5625 1 8 C0 7 0 7 -0.0625 3.4375 C-0.041875 2.303125 -0.02125 1.16875 0 0 Z " fill="#979797" transform="translate(216,141)"/>
<path d="M0 0 C2.375 -0.125 2.375 -0.125 5 0 C7 2 7 2 7.125 5.125 C7.08375 6.07375 7.0425 7.0225 7 8 C6.34 8 5.68 8 5 8 C5 6.02 5 4.04 5 2 C4.01 2 3.02 2 2 2 C2 3.98 2 5.96 2 8 C1.34 8 0.68 8 0 8 C0 5.36 0 2.72 0 0 Z " fill="#535353" transform="translate(80,135)"/>
<path d="M0 0 C2.0625 0.1875 2.0625 0.1875 4 1 C4.33 1.99 4.66 2.98 5 4 C3.35 4 1.7 4 0 4 C0.33 4.66 0.66 5.32 1 6 C1.99 6 2.98 6 4 6 C4 6.66 4 7.32 4 8 C2.35 8 0.7 8 -1 8 C-1.625 5.125 -1.625 5.125 -2 2 C-1.34 1.34 -0.68 0.68 0 0 Z " fill="#525252" transform="translate(74,135)"/>
<path d="M0 0 C2.0625 0.4375 2.0625 0.4375 4 1 C4.625 2.875 4.625 2.875 5 5 C4.34 5.66 3.68 6.32 3 7 C0.875 6.625 0.875 6.625 -1 6 C-1.042721 4.33388095 -1.04063832 2.66617115 -1 1 C-0.67 0.67 -0.34 0.34 0 0 Z " fill="#7D7D7D" transform="translate(501,127)"/>
<path d="M0 0 C0.33 0 0.66 0 1 0 C1 2.31 1 4.62 1 7 C-0.98 7.33 -2.96 7.66 -5 8 C-5 6.02 -5 4.04 -5 2 C-3.35 2 -1.7 2 0 2 C0 1.34 0 0.68 0 0 Z " fill="#959595" transform="translate(242,227)"/>
<path d="M0 0 C1.67542976 0.28604898 3.34385343 0.61781233 5 1 C5 1.99 5 2.98 5 4 C3.68 4.33 2.36 4.66 1 5 C2.32 5.66 3.64 6.32 5 7 C3.125 7.625 3.125 7.625 1 8 C-1 6 -1 6 -1.1875 3.4375 C-1 1 -1 1 0 0 Z " fill="#4E4E4E" transform="translate(540,228)"/>
<path d="M0 0 C0.33 0 0.66 0 1 0 C1 2.31 1 4.62 1 7 C-0.98 7.33 -2.96 7.66 -5 8 C-5 6.02 -5 4.04 -5 2 C-3.35 2 -1.7 2 0 2 C0 1.34 0 0.68 0 0 Z " fill="#959595" transform="translate(276,227)"/>
<path d="M0 0 C1.67542976 0.28604898 3.34385343 0.61781233 5 1 C4.67 2.65 4.34 4.3 4 6 C2.35 6 0.7 6 -1 6 C-1.042721 4.33388095 -1.04063832 2.66617115 -1 1 C-0.67 0.67 -0.34 0.34 0 0 Z " fill="#808080" transform="translate(128,189)"/>
<path d="M0 0 C1.32 0 2.64 0 4 0 C3.95875 0.78375 3.9175 1.5675 3.875 2.375 C3.71271266 5.16116119 3.71271266 5.16116119 6 7 C4.68 7.33 3.36 7.66 2 8 C1.67 7.01 1.34 6.02 1 5 C0.34 5 -0.32 5 -1 5 C-0.67 3.35 -0.34 1.7 0 0 Z " fill="#AD9B9B" transform="translate(243,143)"/>
<path d="M0 0 C2.52259061 1.97420135 2.9929808 2.96745642 3.6875 6.1875 C3.790625 7.115625 3.89375 8.04375 4 9 C3.67 8.34 3.34 7.68 3 7 C1.02 7.66 -0.96 8.32 -3 9 C-2.69181644 7.68647977 -2.37832335 6.37420428 -2.0625 5.0625 C-1.88847656 4.33160156 -1.71445312 3.60070312 -1.53515625 2.84765625 C-1 1 -1 1 0 0 Z " fill="#595959" transform="translate(497,108)"/>
<path d="M0 0 C1.32 0 2.64 0 4 0 C4 1.32 4 2.64 4 4 C3.01 4.33 2.02 4.66 1 5 C1 5.66 1 6.32 1 7 C1.66 7.33 2.32 7.66 3 8 C3.33 7.34 3.66 6.68 4 6 C4 6.99 4 7.98 4 9 C2.35 9 0.7 9 -1 9 C-1.09765625 2.84765625 -1.09765625 2.84765625 -1 1 C-0.67 0.67 -0.34 0.34 0 0 Z " fill="#505050" transform="translate(524,289)"/>
<path d="M0 0 C1.32 0 2.64 0 4 0 C4 2.64 4 5.28 4 8 C2.35 7.67 0.7 7.34 -1 7 C-0.67 4.69 -0.34 2.38 0 0 Z " fill="#828282" transform="translate(239,215)"/>
<path d="M0 0 C1.32 0 2.64 0 4 0 C4 2.64 4 5.28 4 8 C2.68 8 1.36 8 0 8 C0 5.36 0 2.72 0 0 Z " fill="#909090" transform="translate(217,199)"/>
<path d="M0 0 C2 2 2 2 2.125 4.625 C2.08375 5.40875 2.0425 6.1925 2 7 C-2 7 -2 7 -5 6 C-4.67 4.35 -4.34 2.7 -4 1 C-2.125 0.375 -2.125 0.375 0 0 Z " fill="#888888" transform="translate(208,200)"/>
<path d="M0 0 C0.66 0 1.32 0 2 0 C2 1.32 2 2.64 2 4 C3.32 4 4.64 4 6 4 C6.33 2.68 6.66 1.36 7 0 C7 2.97 7 5.94 7 9 C6.67 7.68 6.34 6.36 6 5 C4.68 5 3.36 5 2 5 C2 6.32 2 7.64 2 9 C1.34 9 0.68 9 0 9 C0 6.03 0 3.06 0 0 Z " fill="#4A4A4A" transform="translate(487,270)"/>
<path d="M0 0 C0.99 0 1.98 0 3 0 C3 2.64 3 5.28 3 8 C1.35 7.67 -0.3 7.34 -2 7 C-1.34 4.69 -0.68 2.38 0 0 Z " fill="#808080" transform="translate(232,201)"/>
<path d="M0 0 C0.66 0 1.32 0 2 0 C3.42944945 2.35438733 4.08661261 3.48032433 3.625 6.25 C3.41875 6.8275 3.2125 7.405 3 8 C3 7.34 3 6.68 3 6 C1.02 6.66 -0.96 7.32 -3 8 C-1.125 1.125 -1.125 1.125 0 0 Z " fill="#575757" transform="translate(97,204)"/>
<path d="M0 0 C0.66 0 1.32 0 2 0 C2 1.65 2 3.3 2 5 C2.66 5 3.32 5 4 5 C4 3.35 4 1.7 4 0 C4.66 0 5.32 0 6 0 C6 2.31 6 4.62 6 7 C4.33388095 7.042721 2.66617115 7.04063832 1 7 C0 6 0 6 -0.0625 2.9375 C-0.041875 1.968125 -0.02125 0.99875 0 0 Z " fill="#616161" transform="translate(528,127)"/>
<path d="M0 0 C1.66611905 -0.042721 3.33382885 -0.04063832 5 0 C6 1 6 1 6.0625 4.0625 C6.041875 5.031875 6.02125 6.00125 6 7 C5.34 7 4.68 7 4 7 C4 5.35 4 3.7 4 2 C3.34 2 2.68 2 2 2 C2 3.65 2 5.3 2 7 C1.34 7 0.68 7 0 7 C0 4.69 0 2.38 0 0 Z " fill="#6F6F6F" transform="translate(507,127)"/>
<path d="M0 0 C2.125 0.375 2.125 0.375 4 1 C4 2.98 4 4.96 4 7 C2.35 6.67 0.7 6.34 -1 6 C-1.625 4.125 -1.625 4.125 -2 2 C-1.34 1.34 -0.68 0.68 0 0 Z " fill="#656565" transform="translate(479,127)"/>
<path d="M0 0 C0.33 1.32 0.66 2.64 1 4 C2.32 4 3.64 4 5 4 C5 2.68 5 1.36 5 0 C5.66 0 6.32 0 7 0 C7 2.97 7 5.94 7 9 C6.34 9 5.68 9 5 9 C5 7.68 5 6.36 5 5 C3.68 5 2.36 5 1 5 C0.67 6.32 0.34 7.64 0 9 C0 6.03 0 3.06 0 0 Z " fill="#4A4A4A" transform="translate(486,108)"/>
<path d="M0 0 C2.475 0.495 2.475 0.495 5 1 C5 2.32 5 3.64 5 5 C4.360625 5.103125 3.72125 5.20625 3.0625 5.3125 C2.381875 5.539375 1.70125 5.76625 1 6 C0.67 6.99 0.34 7.98 0 9 C0 6.03 0 3.06 0 0 Z " fill="#646464" transform="translate(452,270)"/>
<path d="M0 0 C0.66 0 1.32 0 2 0 C2 2.64 2 5.28 2 8 C1.34 8 0.68 8 0 8 C0 6.35 0 4.7 0 3 C-0.66 3 -1.32 3 -2 3 C-2 4.65 -2 6.3 -2 8 C-2.66 8 -3.32 8 -4 8 C-4 6.02 -4 4.04 -4 2 C-2.68 2 -1.36 2 0 2 C0 1.34 0 0.68 0 0 Z " fill="#8B8B8B" transform="translate(254,213)"/>
<path d="M0 0 C0.66 0 1.32 0 2 0 C2 0.99 2 1.98 2 3 C2.66 3 3.32 3 4 3 C4 2.01 4 1.02 4 0 C4.66 0 5.32 0 6 0 C6 2.31 6 4.62 6 7 C5.34 7 4.68 7 4 7 C4 6.01 4 5.02 4 4 C3.34 4 2.68 4 2 4 C2 4.99 2 5.98 2 7 C1.34 7 0.68 7 0 7 C0 4.69 0 2.38 0 0 Z " fill="#777777" transform="translate(269,200)"/>
<path d="M0 0 C1.32 0 2.64 0 4 0 C4 2.31 4 4.62 4 7 C2.68 7.33 1.36 7.66 0 8 C0 5.36 0 2.72 0 0 Z " fill="#828282" transform="translate(257,157)"/>
<path d="M0 0 C1.67542976 0.28604898 3.34385343 0.61781233 5 1 C5 1.99 5 2.98 5 4 C3.35 4 1.7 4 0 4 C0.95865509 6.33075929 0.95865509 6.33075929 4 8 C2.35 7.67 0.7 7.34 -1 7 C-1.04254356 5.00045254 -1.04080783 2.99958364 -1 1 C-0.67 0.67 -0.34 0.34 0 0 Z " fill="#4B4B4B" transform="translate(122,135)"/>
<path d="M0 0 C2.97 0.495 2.97 0.495 6 1 C5.67 2.32 5.34 3.64 5 5 C4.67 4.01 4.34 3.02 4 2 C3.34 2 2.68 2 2 2 C2 4.31 2 6.62 2 9 C1.34 9 0.68 9 0 9 C0 6.03 0 3.06 0 0 Z " fill="#545454" transform="translate(450,108)"/>
<path d="M0 0 C1.65 0.33 3.3 0.66 5 1 C5 1.66 5 2.32 5 3 C3.68 3 2.36 3 1 3 C1 3.66 1 4.32 1 5 C2.32 5.33 3.64 5.66 5 6 C3.125 6.625 3.125 6.625 1 7 C0.34 6.34 -0.32 5.68 -1 5 C-0.625 2.375 -0.625 2.375 0 0 Z " fill="#5D5D5D" transform="translate(542,289)"/>
<path d="M0 0 C0.99 0 1.98 0 3 0 C3.33 2.31 3.66 4.62 4 7 C3.01 7.495 3.01 7.495 2 8 C2 7.34 2 6.68 2 6 C1.34 6 0.68 6 0 6 C-0.33 6.66 -0.66 7.32 -1 8 C-1.04241723 5.66705225 -1.04092937 3.33297433 -1 1 C-0.67 0.67 -0.34 0.34 0 0 Z " fill="#797979" transform="translate(264,215)"/>
<path d="M0 0 C1.65 1.65 3.3 3.3 5 5 C4.01 5.33 3.02 5.66 2 6 C2 6.66 2 7.32 2 8 C1.01 8 0.02 8 -1 8 C-1.04241723 5.66705225 -1.04092937 3.33297433 -1 1 C-0.67 0.67 -0.34 0.34 0 0 Z " fill="#CECECE" transform="translate(271,141)"/>
<path d="M0 0 C2.0625 0.4375 2.0625 0.4375 4 1 C4 2.98 4 4.96 4 7 C2.35 6.67 0.7 6.34 -1 6 C-1.042721 4.33388095 -1.04063832 2.66617115 -1 1 C-0.67 0.67 -0.34 0.34 0 0 Z " fill="#616161" transform="translate(541,127)"/>
<path d="M0 0 C1.66611905 -0.042721 3.33382885 -0.04063832 5 0 C6 1 6 1 6.0625 4.0625 C6.041875 5.031875 6.02125 6.00125 6 7 C5.67 7 5.34 7 5 7 C4.67 5.35 4.34 3.7 4 2 C3.67 2 3.34 2 3 2 C2.67 3.98 2.34 5.96 2 8 C1.34 8 0.68 8 0 8 C0 5.36 0 2.72 0 0 Z " fill="#444444" transform="translate(496,228)"/>
<path d="M0 0 C0.99 0 1.98 0 3 0 C4.125 3.75 4.125 3.75 3 6 C1.68 6 0.36 6 -1 6 C-1.625 4.125 -1.625 4.125 -2 2 C-1.34 1.34 -0.68 0.68 0 0 Z " fill="#9A9A9A" transform="translate(222,215)"/>
<path d="M0 0 C1.65 0.33 3.3 0.66 5 1 C4.67 2.65 4.34 4.3 4 6 C2.35 5.67 0.7 5.34 -1 5 C-0.67 3.35 -0.34 1.7 0 0 Z " fill="#626262" transform="translate(101,189)"/>
<path d="M0 0 C2.475 0.495 2.475 0.495 5 1 C4.67 2.32 4.34 3.64 4 5 C3.34 5 2.68 5 2 5 C2 5.66 2 6.32 2 7 C1.34 7 0.68 7 0 7 C0 4.69 0 2.38 0 0 Z " fill="#898989" transform="translate(236,141)"/>
<path d="M0 0 C2 0.25 2 0.25 4 1 C4.33 1.99 4.66 2.98 5 4 C3.68 4.33 2.36 4.66 1 5 C1.99 5.66 2.98 6.32 4 7 C2.35 6.67 0.7 6.34 -1 6 C-1.042721 4.33388095 -1.04063832 2.66617115 -1 1 C-0.67 0.67 -0.34 0.34 0 0 Z " fill="#5A5A5A" transform="translate(475,110)"/>
<path d="M0 0 C2 3 2 3 2 6 C2.99 5.67 3.98 5.34 5 5 C5 5.66 5 6.32 5 7 C1.37 7 -2.26 7 -6 7 C-4.68 6.34 -3.36 5.68 -2 5 C-0.71745356 2.46229997 -0.71745356 2.46229997 0 0 Z " fill="#E9E6E6" transform="translate(446,67)"/>
<path d="M0 0 C0.33 0 0.66 0 1 0 C1 1.65 1 3.3 1 5 C1.99 5 2.98 5 4 5 C4 3.35 4 1.7 4 0 C4.66 0 5.32 0 6 0 C6 2.31 6 4.62 6 7 C4.33388095 7.042721 2.66617115 7.04063832 1 7 C0 6 0 6 -0.0625 2.9375 C-0.041875 1.968125 -0.02125 0.99875 0 0 Z " fill="#5F5F5F" transform="translate(462,289)"/>
<path d="M0 0 C2.0625 0.4375 2.0625 0.4375 4 1 C3.67 2.65 3.34 4.3 3 6 C1.68 6 0.36 6 -1 6 C-1.042721 4.33388095 -1.04063832 2.66617115 -1 1 C-0.67 0.67 -0.34 0.34 0 0 Z " fill="#FBFBFB" transform="translate(454,288)"/>
<path d="M0 0 C0.66 0 1.32 0 2 0 C2 0.66 2 1.32 2 2 C2.66 2 3.32 2 4 2 C4 2.66 4 3.32 4 4 C3.34 4 2.68 4 2 4 C2.33 5.98 2.66 7.96 3 10 C2.01 9.67 1.02 9.34 0 9 C-1.125 2.25 -1.125 2.25 0 0 Z " fill="#4E4E4E" transform="translate(511,63)"/>
<path d="M0 0 C1.32 0.66 2.64 1.32 4 2 C4 2.66 4 3.32 4 4 C2.68 4.33 1.36 4.66 0 5 C0.99 5.66 1.98 6.32 3 7 C1.35 6.67 -0.3 6.34 -2 6 C-1.125 1.125 -1.125 1.125 0 0 Z " fill="#565656" transform="translate(131,205)"/>
<path d="M0 0 C0.66 0 1.32 0 2 0 C2 0.66 2 1.32 2 2 C2.66 2 3.32 2 4 2 C4 2.66 4 3.32 4 4 C3.34 4 2.68 4 2 4 C2.33 5.98 2.66 7.96 3 10 C2.01 9.67 1.02 9.34 0 9 C-1.125 2.25 -1.125 2.25 0 0 Z " fill="#4C4C4C" transform="translate(89,133)"/>
<path d="M0 0 C0 0.66 0 1.32 0 2 C-1.32 2 -2.64 2 -4 2 C-4.33 3.32 -4.66 4.64 -5 6 C-5.66 5.67 -6.32 5.34 -7 5 C-7 3.35 -7 1.7 -7 0 C-4.3333581 -1.33332095 -2.83319697 -0.67102033 0 0 Z " fill="#EAEAEA" transform="translate(520,67)"/>
<path d="M0 0 C2.0625 0.4375 2.0625 0.4375 4 1 C3.01 1.495 3.01 1.495 2 2 C0.86649466 4.01669827 0.86649466 4.01669827 0 6 C-2.97 5.505 -2.97 5.505 -6 5 C-6 4.34 -6 3.68 -6 3 C-4.68 3 -3.36 3 -2 3 C-1.67 2.34 -1.34 1.68 -1 1 C-0.67 0.67 -0.34 0.34 0 0 Z " fill="#8F8F8F" transform="translate(486,289)"/>
<path d="M0 0 C0.66 0 1.32 0 2 0 C2 3.3 2 6.6 2 10 C1.01 9.67 0.02 9.34 -1 9 C-0.67 6.03 -0.34 3.06 0 0 Z " fill="#898989" transform="translate(125,202)"/>
<path d="M0 0 C1.32 0 2.64 0 4 0 C4 0.66 4 1.32 4 2 C4.66 2 5.32 2 6 2 C6.33 1.34 6.66 0.68 7 0 C6.67 1.65 6.34 3.3 6 5 C4.35 5 2.7 5 1 5 C0.67 3.35 0.34 1.7 0 0 Z " fill="#727272" transform="translate(251,202)"/>
<path d="M0 0 C0.33 0.66 0.66 1.32 1 2 C1.99 2 2.98 2 4 2 C4.33 1.34 4.66 0.68 5 0 C5.33 0.99 5.66 1.98 6 3 C4.35 3 2.7 3 1 3 C1.33 3.66 1.66 4.32 2 5 C2.99 5 3.98 5 5 5 C5 5.66 5 6.32 5 7 C3.35 6.67 1.7 6.34 0 6 C-0.38218767 4.34385343 -0.71395102 2.67542976 -1 1 C-0.67 0.67 -0.34 0.34 0 0 Z " fill="#353535" transform="translate(169,136)"/>
<path d="M0 0 C1.98 0.66 3.96 1.32 6 2 C6 2.66 6 3.32 6 4 C4.02 4.66 2.04 5.32 0 6 C0 4.02 0 2.04 0 0 Z " fill="#517CC8" transform="translate(414,103)"/>
<path d="M0 0 C1.485 0.99 1.485 0.99 3 2 C3.33 1.34 3.66 0.68 4 0 C4.66 0 5.32 0 6 0 C6 1.32 6 2.64 6 4 C5.34 4 4.68 4 4 4 C4 4.99 4 5.98 4 7 C3.01 6.67 2.02 6.34 1 6 C0.67 4.02 0.34 2.04 0 0 Z " fill="#595959" transform="translate(465,272)"/>
<path d="M0 0 C4.875 1.75 4.875 1.75 6 4 C3 6 3 6 0 6 C0 4.02 0 2.04 0 0 Z " fill="#517CC8" transform="translate(414,264)"/>
<path d="M0 0 C0.66 0 1.32 0 2 0 C2.66 2.31 3.32 4.62 4 7 C2.02 7 0.04 7 -2 7 C-1.34 4.69 -0.68 2.38 0 0 Z " fill="#6B6B6B" transform="translate(260,227)"/>
<path d="M0 0 C2.475 0.495 2.475 0.495 5 1 C4.67 2.32 4.34 3.64 4 5 C2.68 5.33 1.36 5.66 0 6 C0 4.02 0 2.04 0 0 Z " fill="#9A9A9A" transform="translate(432,226)"/>
<path d="M0 0 C1.32 0 2.64 0 4 0 C4 1.98 4 3.96 4 6 C2.68 6.33 1.36 6.66 0 7 C-0.33 5.68 -0.66 4.36 -1 3 C0.32 3 1.64 3 3 3 C3 2.34 3 1.68 3 1 C2.01 0.67 1.02 0.34 0 0 Z " fill="#535353" transform="translate(117,189)"/>
<path d="M0 0 C0.99 0.33 1.98 0.66 3 1 C3 2.65 3 4.3 3 6 C1.35 6 -0.3 6 -2 6 C-2 4.35 -2 2.7 -2 1 C-1.34 0.67 -0.68 0.34 0 0 Z " fill="#7F7F7F" transform="translate(224,142)"/>
<path d="M0 0 C2.475 0.495 2.475 0.495 5 1 C4.67 2.65 4.34 4.3 4 6 C2.68 5.67 1.36 5.34 0 5 C0 3.35 0 1.7 0 0 Z " fill="#898989" transform="translate(287,229)"/>
<path d="M0 0 C1.32 0 2.64 0 4 0 C4 1.65 4 3.3 4 5 C2.68 5 1.36 5 0 5 C-0.5625 3.0625 -0.5625 3.0625 -1 1 C-0.67 0.67 -0.34 0.34 0 0 Z " fill="#858585" transform="translate(218,229)"/>
<path d="M0 0 C0.66 0 1.32 0 2 0 C2 0.66 2 1.32 2 2 C2.99 2 3.98 2 5 2 C5 3.65 5 5.3 5 7 C4.34 6.67 3.68 6.34 3 6 C3.33 5.01 3.66 4.02 4 3 C3.34 3 2.68 3 2 3 C2 4.32 2 5.64 2 7 C1.34 7 0.68 7 0 7 C0 4.69 0 2.38 0 0 Z " fill="#666666" transform="translate(278,227)"/>
<path d="M0 0 C1.98 0.495 1.98 0.495 4 1 C4 2.65 4 4.3 4 6 C2.35 5.67 0.7 5.34 -1 5 C-0.67 3.35 -0.34 1.7 0 0 Z " fill="#818181" transform="translate(214,170)"/>
<path d="M0 0 C2.475 0.495 2.475 0.495 5 1 C4.67 2.65 4.34 4.3 4 6 C2.68 5.67 1.36 5.34 0 5 C0 3.35 0 1.7 0 0 Z " fill="#878787" transform="translate(228,157)"/>
<path d="M0 0 C1.32 0 2.64 0 4 0 C4 1.65 4 3.3 4 5 C2.68 5 1.36 5 0 5 C-0.5625 3.0625 -0.5625 3.0625 -1 1 C-0.67 0.67 -0.34 0.34 0 0 Z " fill="#858585" transform="translate(205,143)"/>
<path d="M0 0 C0.66 0.33 1.32 0.66 2 1 C2 2.65 2 4.3 2 6 C-0.50357861 5.1654738 -2.66785852 4.20628008 -5 3 C-5 2.67 -5 2.34 -5 2 C-3.35 2 -1.7 2 0 2 C0 1.34 0 0.68 0 0 Z " fill="#F6F5F5" transform="translate(464,230)"/>
<path d="M0 0 C1.32 0 2.64 0 4 0 C4 1.98 4 3.96 4 6 C2.68 6 1.36 6 0 6 C0 4.02 0 2.04 0 0 Z " fill="#868686" transform="translate(194,215)"/>
<path d="M0 0 C1.32 0 2.64 0 4 0 C3.125 4.875 3.125 4.875 2 6 C2.99 6.66 3.98 7.32 5 8 C3.35 8 1.7 8 0 8 C0.50603992 5.83125748 0.99983813 4.00032373 2 2 C1.34 2 0.68 2 0 2 C0 1.34 0 0.68 0 0 Z " fill="#404040" transform="translate(115,135)"/>
<path d="M0 0 C0.33 0 0.66 0 1 0 C1 1.98 1 3.96 1 6 C2.65 6.33 4.3 6.66 6 7 C5.67 7.66 5.34 8.32 5 9 C3.35 8.67 1.7 8.34 0 8 C0 5.36 0 2.72 0 0 Z " fill="#909090" transform="translate(521,128)"/>
<path d="M0 0 C0 0.66 0 1.32 0 2 C-2.97 2 -5.94 2 -9 2 C-6.98558063 -2.02883874 -3.72407517 -0.90585612 0 0 Z " fill="#EEB4B4" transform="translate(487,236)"/>
<path d="M0 0 C0.66 0.33 1.32 0.66 2 1 C1.67 3.64 1.34 6.28 1 9 C0.34 9 -0.32 9 -1 9 C-1.625 6.1875 -1.625 6.1875 -2 3 C-1.34 2.01 -0.68 1.02 0 0 Z " fill="#565656" transform="translate(124,186)"/>
<path d="M0 0 C0.99 0 1.98 0 3 0 C3 3.11257569 2.82638376 5.10765685 2 8 C1.01 7.67 0.02 7.34 -1 7 C-0.34 6.34 0.32 5.68 1 5 C0.34 3.68 -0.32 2.36 -1 1 C-0.67 0.67 -0.34 0.34 0 0 Z " fill="#808080" transform="translate(274,141)"/>
<path d="M0 0 C1.32 0 2.64 0 4 0 C4 0.66 4 1.32 4 2 C3.34 2 2.68 2 2 2 C2 3.98 2 5.96 2 8 C1.34 8 0.68 8 0 8 C0 5.36 0 2.72 0 0 Z " fill="#525252" transform="translate(94,135)"/>
<path d="M0 0 C1.9375 0.8125 1.9375 0.8125 4 2 C4.33 2.99 4.66 3.98 5 5 C3.35 5.33 1.7 5.66 0 6 C0 4.02 0 2.04 0 0 Z " fill="#CACACA" transform="translate(502,67)"/>
<path d="M0 0 C0.33 0.66 0.66 1.32 1 2 C1.66 2.33 2.32 2.66 3 3 C3 4.98 3 6.96 3 9 C2.01 9 1.02 9 0 9 C-1.125 2.25 -1.125 2.25 0 0 Z " fill="#3A3A3A" transform="translate(511,226)"/>
<path d="M0 0 C0.66 0 1.32 0 2 0 C2.66 2.31 3.32 4.62 4 7 C3.34 6.67 2.68 6.34 2 6 C2 5.01 2 4.02 2 3 C1.34 3 0.68 3 0 3 C-0.66 4.32 -1.32 5.64 -2 7 C-1.125 1.125 -1.125 1.125 0 0 Z " fill="#595959" transform="translate(278,200)"/>
<path d="M0 0 C0.99 0.33 1.98 0.66 3 1 C2.01 1.495 2.01 1.495 1 2 C0.34444881 4.52733235 0.34444881 4.52733235 0 7 C-0.66 7 -1.32 7 -2 7 C-2.33 6.01 -2.66 5.02 -3 4 C-1.5625 1.8125 -1.5625 1.8125 0 0 Z " fill="#737373" transform="translate(473,272)"/>
<path d="M0 0 C0.99 0 1.98 0 3 0 C3 1.65 3 3.3 3 5 C1.68 4.67 0.36 4.34 -1 4 C-0.67 2.68 -0.34 1.36 0 0 Z " fill="#E9E9E9" transform="translate(440,229)"/>
<path d="M0 0 C1.98 0.495 1.98 0.495 4 1 C4 2.65 4 4.3 4 6 C2.35 5.67 0.7 5.34 -1 5 C-0.67 4.34 -0.34 3.68 0 3 C0.66 3 1.32 3 2 3 C2 2.34 2 1.68 2 1 C1.34 0.67 0.68 0.34 0 0 Z " fill="#747474" transform="translate(212,201)"/>
<path d="M0 0 C2.31 0 4.62 0 7 0 C7 0.99 7 1.98 7 3 C4.36 3 1.72 3 -1 3 C-0.67 2.01 -0.34 1.02 0 0 Z " fill="#F9B8B8" transform="translate(237,148)"/>
<path d="M0 0 C1.32 0 2.64 0 4 0 C3.67 1.65 3.34 3.3 3 5 C2.01 4.67 1.02 4.34 0 4 C0 2.68 0 1.36 0 0 Z " fill="#DADADA" transform="translate(161,137)"/>
<path d="M0 0 C1.32 0 2.64 0 4 0 C3.67 1.65 3.34 3.3 3 5 C2.01 4.67 1.02 4.34 0 4 C0 2.68 0 1.36 0 0 Z " fill="#D9D9D9" transform="translate(130,137)"/>
<path d="M0 0 C1.32 0 2.64 0 4 0 C4 0.66 4 1.32 4 2 C3.34 2 2.68 2 2 2 C2 3.65 2 5.3 2 7 C1.34 7 0.68 7 0 7 C0 4.69 0 2.38 0 0 Z " fill="#6C6C6C" transform="translate(481,110)"/>
<path d="M0 0 C1.32 0.33 2.64 0.66 4 1 C3.67 2.32 3.34 3.64 3 5 C2.01 5 1.02 5 0 5 C0 3.35 0 1.7 0 0 Z " fill="#E6E6E6" transform="translate(440,67)"/>
<path d="M0 0 C0.66 0 1.32 0 2 0 C2.33 1.98 2.66 3.96 3 6 C2.01 6.33 1.02 6.66 0 7 C0 4.69 0 2.38 0 0 Z " fill="#A3A3A3" transform="translate(455,228)"/>
<path d="M0 0 C2 3 2 3 2 6 C0.35 6 -1.3 6 -3 6 C-2.01 4.02 -1.02 2.04 0 0 Z " fill="#EFEFEF" transform="translate(446,230)"/>
<path d="M0 0 C1.32 0 2.64 0 4 0 C4 0.99 4 1.98 4 3 C3.01 3 2.02 3 1 3 C0.67 3.66 0.34 4.32 0 5 C-0.5625 3.0625 -0.5625 3.0625 -1 1 C-0.67 0.67 -0.34 0.34 0 0 Z " fill="#7E7E7E" transform="translate(257,143)"/>
<path d="M0 0 C1.32 0.33 2.64 0.66 4 1 C3.67 2.32 3.34 3.64 3 5 C2.01 4.67 1.02 4.34 0 4 C0 2.68 0 1.36 0 0 Z " fill="#EBEBEB" transform="translate(153,137)"/>
<path d="M0 0 C0.99 0.33 1.98 0.66 3 1 C3 3.31 3 5.62 3 8 C2.01 7.67 1.02 7.34 0 7 C0 4.69 0 2.38 0 0 Z " fill="#555555" transform="translate(473,126)"/>
</svg>
